<svg id="Layer_3" data-name="Layer 3" xmlns="http://www.w3.org/2000/svg" viewBox="0 0 120 24"><defs><style>.cls-1{fill:#fff;}</style></defs><title>icons</title><path class="cls-1" d="M16.65,7.38l-5.54,5.54,5.54,5.53v.4l-1.71,1.49L9.31,14.71,3.64,20.34,2,18.85V18.5l5.58-5.58L2,7.38V6.93L3.64,5.49l5.67,5.63,5.63-5.63,1.71,1.44Z"/><path class="cls-1" d="M47.67,11.76v-.59L56.4,2.26l2,.59v.54l-6.66,6.93,16.74-.18.27.27-.18,2.3-16.88-.14,6.71,6.93v.58l-2,.54Z"/><path class="cls-1" d="M111.9,11v.58l-8.73,8.91-2-.58v-.54l6.66-6.94-16.74.19-.27-.28L91,10.05l16.87.13-6.7-6.93V2.67l2-.54Z"/></svg>